<svg xmlns="http://www.w3.org/2000/svg" viewBox="0 0 1920 700"><defs><style>.cls-1{fill:#d1cfcf;}.cls-2,.cls-3{font-size:100px;}.cls-2,.cls-3,.cls-44{font-family:LuckiestGuy-Regular, Luckiest Guy;}.cls-3{fill:#383838;}.cls-4{fill:#475443;}.cls-5{fill:#f4e5d0;}.cls-6{fill:#bfa05c;}.cls-7{fill:#f9ead4;}.cls-8{fill:#c9ae79;}.cls-9{fill:#c4a774;}.cls-10,.cls-27{fill:#fff;}.cls-10,.cls-11,.cls-22,.cls-23,.cls-26{stroke:#000;}.cls-10,.cls-11,.cls-12,.cls-13,.cls-17,.cls-18,.cls-22,.cls-23,.cls-24,.cls-25,.cls-35,.cls-36,.cls-39,.cls-40,.cls-43,.cls-50{stroke-miterlimit:10;}.cls-11,.cls-12,.cls-13,.cls-17,.cls-18,.cls-22,.cls-23,.cls-24,.cls-25,.cls-35,.cls-36,.cls-39,.cls-43{fill:none;}.cls-12{stroke:#7f6d49;}.cls-12,.cls-22,.cls-24,.cls-26{stroke-width:3px;}.cls-13{stroke:#edddc8;}.cls-13,.cls-23,.cls-25,.cls-40,.cls-43{stroke-width:2px;}.cls-14{fill:#ce7e8f;}.cls-15{fill:#4f4c48;}.cls-16{fill:#ead8c1;}.cls-17{stroke:#efe92e;}.cls-18{stroke:#edd926;}.cls-19{fill:#f4dfc3;}.cls-20{fill:#725e49;}.cls-21{fill:#5e4c3c;}.cls-24{stroke:#e2ccb0;}.cls-25{stroke:#f4f438;}.cls-26{fill:#333;}.cls-27{font-size:11.5px;font-family:Helvetica-Bold, Helvetica;font-weight:700;}.cls-28{letter-spacing:-0.05em;}.cls-29{fill:#443923;}.cls-30{fill:#4f678e;}.cls-31{fill:#c1ad9a;}.cls-32{fill:#493f2e;}.cls-33{fill:#bca791;}.cls-34{fill:#443b2e;}.cls-35{stroke:#493f2e;}.cls-36{stroke:#ad9a89;}.cls-37{fill:#257284;}.cls-38,.cls-40{fill:#5b9baf;}.cls-39,.cls-40{stroke:#5b9baf;}.cls-39{stroke-width:4px;}.cls-41{fill:#f4e4d0;}.cls-42{fill:#f7e263;}.cls-43{stroke:#847059;}.cls-44{font-size:50px;}.cls-45{letter-spacing:-0.03em;}.cls-46{letter-spacing:-0.01em;}.cls-47{letter-spacing:-0.01em;}.cls-48{letter-spacing:-0.01em;}.cls-49{fill:#8c071e;}.cls-50{fill:#b5183a;stroke:#680319;}.cls-51{fill:#e5d2be;}.cls-52{fill:#eddac3;}.cls-53{fill:#3a3025;}</style></defs><title>sidetilweb</title><g id="Layer_1" data-name="Layer 1"><rect class="cls-1" width="1920" height="700"/></g><g id="Layer_2" data-name="Layer 2"><text class="cls-2" transform="translate(724.45 126.22)">GRUPPE 13</text><text class="cls-3" transform="translate(727.45 119.22)">GRUPPE 13</text><ellipse class="cls-4" cx="252.41" cy="464.9" rx="141.49" ry="76.06" transform="translate(-38.66 23.17) rotate(-4.88)"/><ellipse class="cls-5" cx="246.54" cy="415.39" rx="78.52" ry="25.3" transform="translate(-34.47 22.49) rotate(-4.88)"/><path class="cls-6" d="M383.21,287.79c-10.67-45.13-18.08-92.36-41.46-131.87-8.51-14.38-19.6-27.91-34.4-34.41-16.71-7.34-35.63-4.73-53.28-1-8.21,1.74-16.52,3.75-23.79,8.1a36.75,36.75,0,0,0-7.55,6,26.86,26.86,0,0,0-4.53,3.19,26.49,26.49,0,0,0-5-2.37,36.39,36.39,0,0,0-8.45-4.61c-7.91-3.06-16.44-3.63-24.83-4-18-.69-37.12,0-52.34,10-13.48,8.91-22.11,24.13-28.06,39.74-16.34,42.91-15.63,90.71-18.49,137S70.24,408.77,41,443.08c6.85,6.05,16.9,1.44,25.38-1.24,24.55-7.77,54.52,2.64,74.63-14,8.75-7.26,13.7-18.37,18.35-29.07,6.34-14.62,12.7-29.28,17.34-44.61,8.72-28.84,11.14-59.39,17-89.06,6.24-31.8,16.38-62.54,27.48-92.78,16.08,27.92,31.28,56.5,42.82,86.77,10.77,28.26,18.34,57.95,31.83,84.89,7.17,14.33,15.92,27.7,24.65,41,6.4,9.76,13.16,19.88,23,25.55,22.66,13,50.43-2.31,75.93,1.18,8.82,1.21,19.51,4,25.23-3.08C410,379.75,393.89,332.92,383.21,287.79Z"/><ellipse class="cls-7" cx="229.71" cy="290.36" rx="97.47" ry="132.5" transform="translate(-23.88 20.61) rotate(-4.88)"/><path class="cls-6" d="M214.49,155.31c4.69,33.12-6.53,67.76-30.39,93.8s-60,43.15-97.94,46.32c4.44-28.68,24.17-53.53,43.32-77.13,20.91-25.77,43.15-52.56,75.54-66.51,2.71-1.17,5.87-2.26,8.67-1.28s3.89,5.09,1.13,6.17"/><path class="cls-6" d="M213.54,152.08c3.67,33.24,23.13,64,52.69,83.34S335.08,262.34,372.6,256c-11.41-26.68-36.69-45.87-61.09-64-26.64-19.79-54.83-40.23-89.66-45.72-2.92-.46-6.25-.73-8.73.92s-2.5,5.89.45,6.25"/><path class="cls-8" d="M219,137.69c-4.21,16.65-5.13,30.76-2.06,31.53"/><path class="cls-8" d="M225.29,148.26l.41,0a1.5,1.5,0,0,0,0-3l-.41,0a1.5,1.5,0,1,0,0,3Z"/><path class="cls-9" d="M229.85,146.93c8.14-3.47,16.45-7,25.22-8.46,9.48-1.6,18.55.16,27.52,3.29,7.67,2.68,14.65,5.66,20.32,11.65a191.88,191.88,0,0,1,15.68,18.84,75.85,75.85,0,0,1,11.23,21.34c2.5,7.77,4,15.81,6.95,23.44,5.6,14.43,14.63,27.12,24.33,39.07,1.21,1.5,3.33-.63,2.12-2.12-11.72-14.44-21.88-29.85-26.86-47.95-2.25-8.19-4.16-16.39-8.09-24a111,111,0,0,0-13.55-19.57c-4.78-5.77-9.64-12.35-15.89-16.62-6.5-4.45-14.86-7.17-22.39-9.17-17.05-4.52-32.46,1-48.11,7.65-1.77.75-.24,3.34,1.52,2.59Z"/><path class="cls-9" d="M230.13,165.17a44,44,0,0,1,37.67,1.16c12.59,6.5,20,19.41,26.85,31.24,12.33,21.16,24.5,44.62,48.45,54.37,1.79.73,2.57-2.17.8-2.89-28.56-11.63-39.07-43.24-55.26-66.79-6.88-10-15.25-18-27.05-21.67a46.87,46.87,0,0,0-33,2c-1.77.78-.24,3.37,1.51,2.59Z"/><path class="cls-9" d="M238,185.7c9.52-3.73,17.86,1.3,21.79,10.12,3,6.78,4.41,14,9,20C279,229,296.18,233,309.29,242.08c1.59,1.11,3.09-1.49,1.51-2.59-15.7-10.94-37-15-44.48-34.71-2.47-6.54-4.2-13.91-9.61-18.78a18.83,18.83,0,0,0-19.47-3.19c-1.78.7-1,3.6.79,2.89Z"/><path class="cls-9" d="M206,142.56c-16.41-11.25-37.23-9.4-54.65-1.54-9.12,4.12-18.28,9.59-25.63,16.44s-10.85,15.36-14.07,24.59a535.23,535.23,0,0,0-28.23,136c-1,13.22-1.18,26.52-2.72,39.7a148.53,148.53,0,0,1-11.25,41.89c-.76,1.75,1.82,3.28,2.59,1.51,8.54-19.7,11.89-40.06,13.09-61.38,1.29-22.77,3.09-45.38,6.79-67.91A536.69,536.69,0,0,1,106.78,207c3-10.26,6.17-20.61,10.09-30.57,4.23-10.75,11.22-18,20.77-24.29,19.55-12.9,45.71-21.44,66.85-7,1.6,1.09,3.1-1.51,1.51-2.59Z"/><path class="cls-9" d="M208.8,152.72A68.64,68.64,0,0,0,155,165.54c-8.07,6.18-14.19,14.29-19.72,22.73a219.12,219.12,0,0,0-18,32.15C100.18,259.6,98.81,303,92.78,344.75c-3.54,24.49-8.81,48.88-19.59,71.3-.84,1.73,1.75,3.25,2.59,1.51,17.65-36.69,20.55-77.66,25.57-117.45,2.59-20.49,5.79-41,12.05-60.75A188.69,188.69,0,0,1,145,179.75a65.65,65.65,0,0,1,63-24.14c1.89.34,2.7-2.55.8-2.89Z"/><path class="cls-9" d="M205.73,175.05c-21.63-.41-37.4,16.56-46.91,34.24-10.92,20.33-17.15,44.18-36,59.1-1.51,1.2.63,3.31,2.13,2.12,16.6-13.18,23.72-33.44,32.53-52,9.24-19.41,24.15-41,48.21-40.5,1.93,0,1.93-3,0-3Z"/><path class="cls-9" d="M207,196.17c-15.14-2.36-20.26,13.76-24.51,24.9a89.79,89.79,0,0,1-29.72,39.35c-1.52,1.15,0,3.75,1.52,2.59a93.4,93.4,0,0,0,25.57-29.2c3.22-5.83,5.44-11.94,7.76-18.17,3-8,8.35-18.17,18.58-16.58,1.89.3,2.71-2.59.8-2.89Z"/><path class="cls-9" d="M363.49,265.48a593.75,593.75,0,0,0,22.89,106c2.74,8.75,6.22,18.13,14,22.95"/><path class="cls-9" d="M350.27,307.22a161.7,161.7,0,0,0,5.94,60.54c2.29,7.76,5.38,15.67,11.36,21.12"/><path class="cls-9" d="M331.59,364.37a47.68,47.68,0,0,0,23,41.5"/><path class="cls-9" d="M116.89,311.39q.3,38.12-1.8,76.2c-.55,9.88-.69,21.69-7.46,29.66-1.48,1.74-5.65,3.87-4.67,6.65.68,1.9,2.64,1.94,4,.83,1.49-1.24-.64-3.35-2.12-2.12.7-.58,2.12-.58,3-1.26a14.37,14.37,0,0,0,1.92-2,24.78,24.78,0,0,0,2.93-4.26,36.87,36.87,0,0,0,3.62-10.29c1.84-8.81,1.87-18,2.3-27q1.58-33.19,1.29-66.44a1.5,1.5,0,0,0-3,0Z"/><path class="cls-9" d="M140,362.3a75.15,75.15,0,0,1-13.59,57c-1.14,1.56,1.46,3.06,2.59,1.52A78.08,78.08,0,0,0,142.9,361.5c-.32-1.89-3.21-1.09-2.89.8Z"/><ellipse class="cls-10" cx="178.61" cy="273.63" rx="19.46" ry="25.94" transform="translate(-22.64 16.2) rotate(-4.88)"/><ellipse cx="180.58" cy="284.98" rx="10.98" ry="14.97" transform="translate(-23.6 16.41) rotate(-4.88)"/><path class="cls-11" d="M147.39,242.25c.84,9.89,7.31,17.4,14.45,16.79"/><path class="cls-11" d="M154.66,237.89c-2.73,9.55.63,18.87,7.53,20.84"/><path class="cls-11" d="M142.14,248.62c4.32,8.94,13.05,13.64,19.5,10.52"/><ellipse class="cls-10" cx="274.06" cy="265.47" rx="19.46" ry="25.94" transform="matrix(1, -0.09, 0.09, 1, -21.6, 24.29)"/><ellipse cx="274.04" cy="276.99" rx="10.98" ry="14.97" transform="translate(-22.58 24.33) rotate(-4.88)"/><path class="cls-11" d="M299.5,229.25c.85,9.89-4.25,18.39-11.39,19"/><path class="cls-11" d="M291.6,226.19c4.31,8.95,2.58,18.7-3.88,21.82"/><path class="cls-11" d="M305.76,234.64c-2.75,9.54-10.55,15.66-17.44,13.67"/><path class="cls-12" d="M310.61,234a44.14,44.14,0,0,0-60.41-15.87"/><path class="cls-12" d="M132.2,249.29A44.13,44.13,0,0,1,189,223.39"/><path class="cls-13" d="M244,320.46c-7.9,5.4-16.85,8.05-27,3.28"/><path class="cls-14" d="M199.44,374.92c5.59-2.17,12.41-5,18-7.18a38.63,38.63,0,0,1,10-2.88c3.46-.34,7.16.36,9.77,2.65.56-3.07,3.2-5.43,6.12-6.57s6.1-1.28,9.22-1.48A209.89,209.89,0,0,0,278,356.28a23.77,23.77,0,0,1-5.07,7.73c-10.28,11.51-24.25,20.37-39.62,21.74a35.19,35.19,0,0,1-7.54-.06,56.38,56.38,0,0,1-12.64-3.6c-4.94-1.83-10-3.72-14.08-7,.94-.21.38-.14.38-.14"/><rect class="cls-15" x="857.24" y="474.61" width="161.82" height="126.39" rx="33.26" ry="33.26"/><ellipse class="cls-16" cx="936.33" cy="487.92" rx="57.79" ry="34.92"/><ellipse class="cls-17" cx="934.46" cy="494.32" rx="43.03" ry="60.78"/><ellipse class="cls-18" cx="934.46" cy="495.4" rx="39.8" ry="62.93"/><ellipse class="cls-19" cx="935.08" cy="352.8" rx="100.61" ry="142.6"/><path class="cls-20" d="M1023.22,400.19c0,52.58-39.61,100.2-89,100.2s-89.8-47.62-89.8-100.2,40.43,41.16,89.8,41.16S1023.22,347.61,1023.22,400.19Z"/><path class="cls-21" d="M881.37,429.28c0-31.45,23.94-56.94,53.46-56.94s53.46,25.49,53.46,56.94S964.6,389.8,935.08,389.8,881.37,460.73,881.37,429.28Z"/><path class="cls-22" d="M907.37,419.32a37.41,37.41,0,0,0,52.92,0"/><path class="cls-23" d="M955.18,270.23a40.62,40.62,0,0,1,55.33,15.56"/><ellipse class="cls-10" cx="978.45" cy="304.57" rx="16.91" ry="20.79"/><circle cx="977.86" cy="312.91" r="8.71"/><ellipse class="cls-10" cx="895.3" cy="304.57" rx="16.91" ry="20.79"/><circle cx="894.71" cy="312.91" r="8.71"/><path class="cls-23" d="M914.06,270.23a40.62,40.62,0,0,0-55.33,15.56"/><path class="cls-24" d="M919.12,362.63c7.37,7.77,20.19,7.56,28.66-.47"/><path d="M847.25,282.72c-14.76.9-13.81,24.36-15.41,34.41-2.8,17.58-6.32,35.07-6.54,52.94a1.5,1.5,0,0,0,3,0c.18-15,2.7-29.76,5.18-44.53,1.08-6.47,2.14-13,3-19.47.86-6.74,1.56-19.79,10.8-20.35,1.91-.12,1.93-3.12,0-3Z"/><path d="M849.37,280.28C833.49,295.5,834,319.69,834.55,340c.05,1.92,3.05,1.93,3,0-.53-19.49-1.32-43,13.94-57.59,1.4-1.34-.73-3.46-2.12-2.12Z"/><path d="M843.73,279.48c-14.44,14.37-19.37,36.43-14.83,56,.44,1.88,3.33,1.09,2.9-.79-4.3-18.53.38-39.47,14.05-53.08a1.5,1.5,0,0,0-2.12-2.12Z"/><path d="M847.33,284.9a40.31,40.31,0,0,0-8.76,24.17c-.28,11.41,5,23.63-.78,34.42-.91,1.7,1.67,3.21,2.59,1.51,4.29-8,3.08-16.91,2-25.6-1.51-11.65-.39-22.87,7.13-32.38,1.18-1.5-.93-3.64-2.13-2.12Z"/><path d="M832.51,332.08a51.4,51.4,0,0,0,2.07,25.27c.63,1.81,3.53,1,2.9-.8a48.21,48.21,0,0,1-2.08-23.67c.3-1.89-2.59-2.71-2.89-.8Z"/><path d="M845.46,290.21c-1.19,8.14-2.41,16.34-2.1,24.59.35,9.09,3.19,18,1.72,27.13-.3,1.89,2.59,2.71,2.89.8,1.32-8.2-.57-15.92-1.35-24.07-.88-9.27.39-18.49,1.73-27.65.28-1.89-2.61-2.7-2.89-.8Z"/><ellipse class="cls-19" cx="833.57" cy="331.46" rx="9.04" ry="21.76"/><circle class="cls-25" cx="833.57" cy="348.7" r="5.09"/><path d="M1006.57,253.65c11.1-2.85,15.69,15.37,17.93,22.84,3.07,10.23,6.46,20.36,9.92,30.46,6.89,20.1,13.76,40.23,17.83,61.12.37,1.9,3.26,1.1,2.89-.79-4.78-24.53-13.45-47.94-21.38-71.57-3.56-10.6-6-21.86-10.53-32.11-3-6.81-9-15-17.46-12.84-1.87.48-1.08,3.37.8,2.89Z"/><path d="M1000.81,250.54c11.49,7.78,18.24,21.06,22.62,33.86,4.88,14.23,7.25,29.16,9.65,44,.31,1.9,3.2,1.09,2.89-.8-4.38-27.07-8.85-62.82-33.65-79.63-1.6-1.08-3.1,1.52-1.51,2.6Z"/><path d="M1007.39,247.34c22,15.71,31.51,45.48,31.2,71.52a1.5,1.5,0,0,0,3,0c.32-27.2-9.77-57.75-32.68-74.11-1.58-1.13-3.07,1.47-1.52,2.59Z"/><path d="M1004.19,256.17c11.58,10.69,16.1,25.8,17.37,41.09,1.07,13,.88,27.75,9.15,38.66,1.15,1.52,3.76,0,2.59-1.51-9.57-12.63-7.45-30-9.57-44.85-1.91-13.29-7.43-26.3-17.42-35.51-1.42-1.31-3.54.81-2.12,2.12Z"/><path d="M1033.61,316.85a83.2,83.2,0,0,1,4,35.4c-.19,1.92,2.81,1.9,3,0a85.19,85.19,0,0,0-4.07-36.2c-.62-1.82-3.52-1-2.89.8Z"/><path d="M1006.84,261.63c4.15,12.91,8.23,25.9,9.61,39.44,1.17,11.58.74,23.35,4.63,34.48.63,1.81,3.53,1,2.89-.8-4.19-12-3.33-24.83-4.94-37.29s-5.44-24.63-9.3-36.63c-.58-1.83-3.48-1.05-2.89.8Z"/><path d="M1002.61,251.47c9.77,16,19.7,32.61,21.75,51.64.21,1.9,3.21,1.92,3,0-2.11-19.62-12.08-36.62-22.16-53.15-1-1.65-3.6-.14-2.59,1.51Z"/><path d="M1014.83,254.56A64.91,64.91,0,0,1,1036.21,315c-.35,1.88,2.54,2.69,2.89.79A67.9,67.9,0,0,0,1017,252.44c-1.45-1.26-3.58.85-2.12,2.12Z"/><path d="M1009,252.4c5.53,11.88,15.74,21.29,18.94,34.26.46,1.87,3.35,1.08,2.89-.8-3.27-13.26-13.59-22.84-19.24-35-.82-1.75-3.4-.23-2.59,1.51Z"/><path d="M1002.84,248.64c10.2,8.73,20.71,17.94,25.38,30.92.65,1.8,3.55,1,2.9-.8-4.88-13.53-15.51-23.12-26.16-32.25-1.46-1.25-3.59.87-2.12,2.13Z"/><path d="M1008.86,247.16a245.75,245.75,0,0,1,20.43,37.42c.78,1.76,3.36.24,2.59-1.52a245.65,245.65,0,0,0-20.43-37.41c-1.06-1.6-3.66-.1-2.59,1.51Z"/><path d="M999.2,251.53l31,38c1.22,1.5,3.33-.64,2.12-2.12l-31-38c-1.22-1.5-3.33.64-2.12,2.12Z"/><path d="M1006.47,254.44q11.52,14.64,21.85,30.15c1.07,1.6,3.67.1,2.6-1.51q-10.58-15.82-22.33-30.76c-1.19-1.52-3.3.62-2.12,2.12Z"/><path id="path3359" class="cls-26" d="M1054.94,279.86c-17.11-9.7-25.28-22.68-43.78-30.64,25.28-8.34,30.29-7.63,47.74-.6S1088.83,292.36,1054.94,279.86Z"/><path id="path3355" class="cls-26" d="M1017.71,231c-51.41-15.59-106.74,5.57-151.1,35.89C858,272.79,849.7,279.05,842,285.46c1.23-.44-.47-16.73-.24-20.44-6.58-39.88,4.44-70.89,43.84-90.38,20.74-4.78,44.32-14,65.79-11.67,15.5,4.55,19.31,7.94,37.59,21.2,3.57,5.23,28.1,46.82,28.74,46.81Z"/><path id="path3357" class="cls-26" d="M1062.32,251c-27-13.78-51.78-33-78-31.67-38.44,2.29-81.8,21.2-118.73,47.95,22.18,22.78,31.93,43.92,68.83,25.75C971.87,274.64,1021,228.64,1062.32,251Z"/><path id="path3361" class="cls-26" d="M1021.46,228.3c-51-14.82-96.7,7.63-144.24,31-2.76-70.37-8.16-88.94,71-98.33,15.95-.16,39.22,13.35,42.27,21.3,3.61,5.18,26.56,35.72,31,46Z"/><text class="cls-27" transform="translate(917.14 202.37)">THE </text><text class="cls-27" transform="translate(917.14 211.96)">NORTH</text><text class="cls-27" transform="translate(917.14 221.54)"><tspan class="cls-28">F</tspan><tspan x="6.4" y="0">ACE</tspan></text><path class="cls-29" d="M1677.61,114.88c-8.41-1.49-38.27,6.53-43.29,12.06-6.37,7-13.31,12.56-17.16,20.84-4.13,8.89-15.2,15.11-20.74,23.39-7.34,11,2,22.56-6.82,32.71-5.91,6.81-14,12-20.13,18.66-9.48,10.41-.23,22.2-7.17,34-5.3,9-14.51,16.31-18.27,25.91-2.69,6.85-4.64,9.4-1.62,16.4s3.62,11.75-4,15.07c-2.22,1-5,5.87-7,7.08-3.21,1.9-26.22,22.37-26.44,25.81-.7,11,38.6,1.31,40.89,4.19.53.65-11.06-10.44-10.26-10a6.19,6.19,0,0,0,4.54,0c9-2.75,12.66-11.34,15.4-19l24.69-69.24c4-11.19,8-22.43,13.94-32.91,6.09-10.76,14.14-20.58,21.45-30.76,14-19.52,25.32-40.38,36.59-61.19,1.56-2.88,19-5.66,17.34-8.64s22.25-3.18-21.7,3.26"/><path class="cls-29" d="M1800.81,155.2c8.48,1,34.76,17.31,38,24.05,4.07,8.56,9.11,15.87,10.4,24.91,1.39,9.7,10.19,18.85,13.1,28.38,3.86,12.63-8.42,21-2.92,33.29,3.7,8.23,10,15.51,13.89,23.68,6.07,12.7-6.19,21.31-3,34.61,2.47,10.17,9.18,19.8,10,30.09.59,7.32,1.72,10.33-3.2,16.16s-6.85,10.2-.56,15.57c1.84,1.57,3.06,7.05,4.66,8.8,2.52,2.75,18.65,29,17.86,32.35-2.5,10.7-37.33-9.89-40.36-7.8-.69.47,13.61-6.8,12.72-6.64a6.11,6.11,0,0,1-4.35-1.29c-7.78-5.21-8.85-14.51-9.25-22.65q-1.83-36.7-3.64-73.42c-.58-11.87-1.18-23.78-3.84-35.53-2.73-12.07-7.6-23.8-11.65-35.65-7.78-22.73-12.58-46-17.37-69.15-.66-3.2-16.56-10.91-14.09-13.28s-16.6-12.59,23.62,6.27"/><ellipse class="cls-30" cx="1686.03" cy="444.69" rx="71.98" ry="133.89" transform="matrix(0.2, -0.98, 0.98, 0.2, 918.86, 2010.54)"/><ellipse class="cls-31" cx="1693.77" cy="398.15" rx="23.94" ry="74.3" transform="translate(970.71 1980.73) rotate(-78.67)"/><path class="cls-32" d="M1746.84,152.62l.38.08a1.54,1.54,0,0,0,1.85-1,1.52,1.52,0,0,0-1-1.85l-.38-.07a1.5,1.5,0,0,0-.8,2.89Z"/><path class="cls-29" d="M1856.39,306.49c1.48-40.1,6.45-81.1-5-119.82-4.18-14.09-10.92-28.15-22.77-37.33-13.39-10.38-31.25-13.08-48.24-14.53-7.91-.67-16-1.14-23.67.59a34.87,34.87,0,0,0-8.35,3,25.67,25.67,0,0,0-4.91,1.47,25.41,25.41,0,0,0-4-3.25,35.55,35.55,0,0,0-6.55-6c-6.44-4.56-14.06-7.23-21.61-9.65-16.24-5.21-33.77-9.6-50.12-5.18-14.47,3.92-26.1,14.29-35.38,25.68-25.52,31.32-36.72,71.07-50.81,108.65s-33.4,76-68.51,96.88c4.73,6.77,15,5.54,23.4,5.5,24.26-.12,49,16.21,71.4,7.57,9.77-3.76,17-11.69,23.9-19.35,9.4-10.47,18.83-21,26.84-32.46,15.09-21.63,24.87-46.3,37.52-69.36,13.56-24.72,30.41-47.56,48-69.73C1745.25,196.42,1752,224,1755,252c2.8,26.16,2.32,52.69,7.91,78.46,3,13.7,7.63,27,12.27,40.3,3.4,9.72,7,19.83,14.6,27.06,17.39,16.62,46.47,11.06,68.81,20.51,7.73,3.27,16.74,8.37,23.72,3.94C1858,389.5,1854.92,346.6,1856.39,306.49Z"/><ellipse class="cls-33" cx="1718.57" cy="283.54" rx="125.38" ry="98.36" transform="translate(1103.02 1912.95) rotate(-78.67)"/><path class="cls-34" d="M1735.17,156.1c-4.49,31.33-23.84,59.84-52.39,77.2s-65.94,23.35-101.23,16.22c11.61-24.89,36.1-42.26,59.73-58.65,25.81-17.89,53.1-36.36,86.21-40.48,2.77-.35,5.93-.5,8.22,1.13s2.19,5.65-.61,5.9"/><path class="cls-34" d="M1735.16,152.91c-5.45,31.17,4.1,64.28,25.86,89.64s55.44,42.65,91.21,46.81c-3.32-27.26-21.22-51.37-38.6-74.27-19-25-39.2-51-69.4-65.23-2.53-1.19-5.48-2.31-8.17-1.47s-3.83,4.69-1.25,5.8"/><path class="cls-35" d="M1744,141.28c-8.22,14-12.78,26.6-10.2,28.11"/><path class="cls-32" d="M1751,152.66c16-1.92,31.16-2.7,45.34,6.29,6.64,4.21,13.82,9.15,18,15.94,4.09,6.61,7.13,14.36,9.92,21.59a76.57,76.57,0,0,1,5.41,22.43c.52,8.1-.47,16.22.12,24.32,1.09,14.93,6,29.19,11.76,42.89.74,1.75,3.65,1,2.9-.8-6.94-16.49-12.15-33.34-11.85-51.4.12-7.6.51-15.12-.87-22.64-1.43-7.87-4.33-15.38-7.52-22.68-2.93-6.75-5.65-14.11-10.57-19.69-4.71-5.34-11.19-9.79-17.25-13.46-14.16-8.55-29.56-7.69-45.4-5.79-1.9.22-1.92,3.23,0,3Z"/><path class="cls-32" d="M1746.43,169.31a41.65,41.65,0,0,1,32.68,9.56c10.24,8.8,13.87,22,17.1,34.62,5.88,22.95,10.28,48.6,30,64.23,1.49,1.19,3.63-.92,2.12-2.12-23-18.26-24.25-49.53-32.8-75.41-3.49-10.57-8.7-19.88-18-26.34a44.28,44.28,0,0,0-31.06-7.54c-1.89.25-1.91,3.25,0,3Z"/><path class="cls-32" d="M1748.55,190c10.33-.95,16.19,6.76,17.19,16.27.7,6.7.35,13.31,3,19.66,5.87,14.33,20.23,22.47,29.66,34.12,1.22,1.51,3.33-.63,2.12-2.12-11.56-14.29-29.62-23.42-31.22-43.56-.56-7-.17-14.56-4.58-20.47a17.9,17.9,0,0,0-16.12-6.9c-1.91.17-1.92,3.18,0,3Z"/><path class="cls-32" d="M1730.85,142.18c-12.23-14.88-32.09-18.46-50.32-15.67-9.8,1.5-20.24,4.25-28.89,9.23-8.36,4.82-13.74,12.69-19.15,20.43A506.51,506.51,0,0,0,1572.39,271c-4.5,12.17-8.28,24.65-13.56,36.52a139.52,139.52,0,0,1-20.09,32.29c-1.22,1.48.89,3.61,2.12,2.12,12.6-15.2,21-32.31,27.57-50.81,7.09-19.92,14.38-39.63,23.4-58.78a506.7,506.7,0,0,1,29.32-53.65q8.37-13.32,17.55-26.1c6.74-9.31,14.27-15.23,25.22-18.87,21.68-7.22,48.85-8.81,64.81,10.6,1.23,1.49,3.34-.64,2.12-2.12Z"/><path class="cls-32" d="M1730.71,152.09a66.26,66.26,0,0,0-55.65-1.35c-9.67,4.3-17.86,11.21-25.77,18.11A179.75,179.75,0,0,0,1627,191.51c-24.2,30.11-36.39,67.32-52.51,101.91-9.41,20.19-20.37,39.75-35.52,56.25-1.3,1.42.81,3.55,2.12,2.12,25-27.21,38.3-62,52.87-95.32,7.38-16.88,15.2-33.66,25.27-49.12,11.11-17,25.34-31.55,41.33-44.08,19.83-15.52,45.54-19.85,68.59-8.59,1.73.85,3.25-1.74,1.52-2.59Z"/><path class="cls-32" d="M1722,171.63c-19.53-6-38.27,5.09-51.62,18.63-15.24,15.47-27.15,35.6-48.05,44.17-1.77.73-1,3.63.79,2.9,18.16-7.45,29.88-23.1,42.43-37.41,13.78-15.69,33.17-32.32,55.65-25.4,1.85.57,2.64-2.32.8-2.89Z"/><path class="cls-32" d="M1717.56,191.15c-12.51-5.85-21.5,6.13-28,15a85.49,85.49,0,0,1-38.29,29.11c-1.78.68-1,3.58.8,2.89a88.42,88.42,0,0,0,31.55-20.39,125.64,125.64,0,0,0,11.28-13.9c4.78-6.46,12.36-14.2,21.17-10.08,1.74.81,3.26-1.77,1.52-2.59Z"/><path class="cls-32" d="M1840,295.16a477.81,477.81,0,0,0-5.76,64.43c-.21,10.5-.2,21.06.43,31.55.47,7.85,2,15.39,7.42,21.36,1.3,1.43,3.42-.7,2.12-2.12-6.36-7-6.5-16.48-6.8-25.39q-.5-14.65-.07-29.31A470.48,470.48,0,0,1,1842.9,296c.29-1.89-2.6-2.7-2.9-.8Z"/><path class="cls-32" d="M1817,329.6a144.62,144.62,0,0,0-9.66,40.68c-1,11.86-1.7,25.32,4.62,35.92a1.5,1.5,0,0,0,2.59-1.51c-6.29-10.55-5.21-24.49-4-36.25a142.24,142.24,0,0,1,9.38-38.05c.71-1.79-2.19-2.57-2.89-.79Z"/><path class="cls-32" d="M1796.13,359.9a47.18,47.18,0,0,0,10.34,45.24c1.3,1.43,3.42-.7,2.12-2.12A44.07,44.07,0,0,1,1799,360.7c.55-1.86-2.34-2.65-2.9-.8Z"/><path class="cls-32" d="M1605.17,272.13q-9.09,30.63-20.48,60.51c-3.43,8.91-7.18,15.84-16.06,20.09-1.33.64-3,1.2-2.82,3a2.33,2.33,0,0,0,3.2,1.86c1.81-.64,1-3.54-.8-2.9a1.56,1.56,0,0,0,2.59.44c.56-.23,1.11-.47,1.65-.73a20.73,20.73,0,0,0,3.77-2.43,27.13,27.13,0,0,0,5.58-6.32c3.86-5.87,6-12.84,8.48-19.36q9.81-26.37,17.79-53.36c.55-1.86-2.35-2.65-2.9-.8Z"/><path class="cls-32" d="M1612.74,324.52c-1.26,14.64-11.28,25.78-23.83,32.48-1.7.91-.19,3.5,1.52,2.59,13.55-7.24,24-19.35,25.31-35.07.16-1.92-2.84-1.91-3,0Z"/><ellipse class="cls-10" cx="1676.36" cy="244.88" rx="24.55" ry="18.41" transform="translate(1107.01 1840.49) rotate(-78.67)"/><ellipse cx="1675.15" cy="255.71" rx="14.16" ry="10.39" transform="translate(1095.42 1848.01) rotate(-78.67)"/><path class="cls-11" d="M1656.28,208.11c-1.85,9.21,2,17.75,8.69,19.08"/><path class="cls-11" d="M1664,206.08c-5,7.95-4.41,17.31,1.34,20.92"/><path class="cls-11" d="M1649.82,212.52c1.57,9.26,8.26,15.84,14.94,14.7"/><ellipse class="cls-10" cx="1765.24" cy="262.68" rx="24.55" ry="18.41" transform="translate(1160.98 1941.94) rotate(-78.67)"/><ellipse cx="1762.18" cy="273.14" rx="14.16" ry="10.39" transform="translate(1148.26 1947.35) rotate(-78.67)"/><path class="cls-11" d="M1797.93,236.48c-1.85,9.22-8.72,15.59-15.38,14.26"/><path class="cls-11" d="M1791.55,231.62c1.56,9.26-2.59,17.67-9.29,18.8"/><path class="cls-11" d="M1802.19,243c-5,7.94-13.72,11.44-19.46,7.81"/><path class="cls-22" d="M1806.75,243.77a41.77,41.77,0,0,0-50.69-30.38"/><path class="cls-22" d="M1640.61,210.49A41.78,41.78,0,0,1,1699.1,202"/><path class="cls-36" d="M1723.43,304.71c-8.6,2.82-17.43,2.86-25.4-4.16"/><path class="cls-14" d="M1668.52,342.42c5.66-.5,12.61-1.28,18.26-1.78a36.35,36.35,0,0,1,9.83,0,12.2,12.2,0,0,1,8.18,5c1.32-2.65,4.34-4.1,7.29-4.36s5.88.45,8.77,1.09a200.67,200.67,0,0,0,24,3.85,22.77,22.77,0,0,1-6.65,5.68c-12.37,7.74-27.41,12.1-41.74,9.29a33.8,33.8,0,0,1-6.83-2,53.56,53.56,0,0,1-10.54-6.61c-4-3-8.08-6-10.94-10.11.92.05.38,0,.38,0"/><path class="cls-37" d="M1466.9,528.6,1402,459.22l-64.85-69.39c-7-7.44-24.38-7.47-31.36,0L1240.77,459l-65.06,69.2c-7,7.42,1.72,16.73,15.66,16.75l129.91.19,129.91.19C1465.13,545.33,1473.86,536.05,1466.9,528.6Z"/><ellipse class="cls-38" cx="1322.07" cy="434.92" rx="137.9" ry="66.92"/><path class="cls-39" d="M1303.18,498.49c-12.46,28-13.7,54.57-2.77,59.43"/><path class="cls-39" d="M1338.43,498.59c8.37,29.47,5.83,56-5.67,59.23"/><line class="cls-40" x1="1246.36" y1="523.47" x2="1230.14" y2="543.75"/><line class="cls-40" x1="1395.04" y1="525.13" x2="1409.66" y2="543.4"/><ellipse class="cls-37" cx="1322.75" cy="433.71" rx="115.3" ry="55.95"/><ellipse class="cls-19" cx="1321.67" cy="463.07" rx="49.86" ry="20.78"/><rect class="cls-41" x="1297.74" y="417.76" width="50.02" height="50.02" rx="12" ry="12"/><ellipse class="cls-19" cx="1321.95" cy="305.26" rx="126.68" ry="141.91"/><path class="cls-24" d="M1304.69,315.46c8.79,9.27,24.08,9,34.2-.57"/><path class="cls-22" d="M1273.71,369.6a67.94,67.94,0,0,0,96.14,0"/><ellipse class="cls-19" cx="1449.24" cy="274.81" rx="12.79" ry="21.32"/><ellipse class="cls-19" cx="1199.53" cy="274.81" rx="12.79" ry="21.32"/><path class="cls-42" d="M1220.64,220.49c-4.12-4.89-8.32-9.89-10.63-15.85s-2.45-13.15,1.27-18.34c3.24-4.54,8.74-6.8,14-8.61,43.73-15.05,91-14.63,137.12-17.75s94.28-10.86,131-38.94a81.55,81.55,0,0,1-14.06,19.94,34,34,0,0,0,13.73-6.2,99.4,99.4,0,0,1-16.06,16.42l14.1-2.61a105.67,105.67,0,0,0-15.53,13.9,44.81,44.81,0,0,0,15.12-5.59l-13.31,13.73a38.08,38.08,0,0,0,14.19-3.8c-18.84,23.37-45.55,38.93-72.47,52.19-22.07,10.87-45.27,20.7-69.8,22.5-16.38,1.19-32.77-1.23-49.14-2.48-28.34-2.18-56.81-.85-85.22-.7-2.57,0-5.27,0-7.49-1.3-2.06-1.18-3.41-3.27-4.55-5.36a53.6,53.6,0,0,1-5.94-32.56c.82-6,2.83-12.12,7.23-16.28,3.37-3.19,7.83-4.94,12.23-6.44a177.92,177.92,0,0,1,63-9.42"/><path class="cls-43" d="M1345.55,231.41a46.21,46.21,0,0,1,63,17.7"/><ellipse class="cls-10" cx="1372.03" cy="270.47" rx="19.24" ry="23.65"/><circle cx="1371.35" cy="279.96" r="9.91"/><ellipse class="cls-10" cx="1277.42" cy="270.47" rx="19.24" ry="23.65"/><circle cx="1276.74" cy="279.96" r="9.91"/><path class="cls-43" d="M1298.76,231.41a46.21,46.21,0,0,0-63,17.7"/><text class="cls-44" transform="translate(1172.5 622.73)"><tspan xml:space="preserve"> Al</tspan><tspan class="cls-45" x="63.62" y="0">e</tspan><tspan x="90.99" y="0">xander</tspan></text><text class="cls-44" transform="translate(1603.5 576.73)">meha</text><text class="cls-44" transform="translate(848.5 653.73)">Nicklas</text><text class="cls-44" transform="translate(189.5 600.73)"><tspan class="cls-46">M</tspan><tspan x="39.11" y="0">arie</tspan></text><text class="cls-44" transform="translate(517.5 628.73)"><tspan class="cls-47">t</tspan><tspan x="26.78" y="0">ob</tspan><tspan class="cls-48" x="88.38" y="0">i</tspan><tspan x="102.73" y="0">as</tspan></text><rect class="cls-49" x="512.16" y="438.69" width="163.04" height="129.31" rx="20.62" ry="20.62"/><path class="cls-50" d="M587.27,480.48a3.72,3.72,0,0,1,0,6.43L569,497.22l-18.19,10.32a3.71,3.71,0,0,1-5.54-3.26l.16-20.91.16-20.91a3.71,3.71,0,0,1,5.6-3.17l18,10.59Z"/><path class="cls-50" d="M596.26,480.48a3.71,3.71,0,0,0,0,6.43l18.19,10.31,18.19,10.32a3.71,3.71,0,0,0,5.54-3.26l-.16-20.91-.16-20.91a3.72,3.72,0,0,0-5.6-3.17l-18,10.59Z"/><ellipse class="cls-51" cx="592.47" cy="462.79" rx="48.99" ry="20.08"/><ellipse class="cls-52" cx="590.67" cy="317.57" rx="110.02" ry="136.38"/><ellipse class="cls-10" cx="546.98" cy="282.41" rx="18.49" ry="22.73"/><circle cx="546.33" cy="291.53" r="9.52"/><ellipse class="cls-10" cx="631.45" cy="282.41" rx="18.49" ry="22.73"/><circle cx="632.1" cy="291.53" r="9.52"/><path class="cls-24" d="M574.63,337.87c8.06,8.5,22.07,8.26,31.34-.52"/><path class="cls-22" d="M558.57,393.43a40.9,40.9,0,0,0,57.87,0"/><ellipse class="cls-52" cx="480.03" cy="287.7" rx="8.83" ry="16.87"/><ellipse class="cls-52" cx="700.09" cy="287.7" rx="8.83" ry="16.87"/><path class="cls-53" d="M537.29,169.28A41.4,41.4,0,0,0,530,208.51c4.11,12.91,13.78,24.22,25.6,33.6,5.61,4.44,11.89,8.59,19.55,10.66,6.63,1.8,13.92,1.94,21.07,2a703.36,703.36,0,0,0,117.26-9.61,269.25,269.25,0,0,1-77.13-6.42,169,169,0,0,0,76.38-6.14,188.58,188.58,0,0,1-29.29-3.78A63.81,63.81,0,0,0,704,229.89a38.6,38.6,0,0,0-14.7-8.11l33.7,1.89a25.63,25.63,0,0,0-12.65-8.39,129,129,0,0,0,37,2.59c-6.41-19.51-26.24-34.64-49.32-43.56s-49.31-12.37-75.34-14.8c-14.11-1.32-28.49-2.36-42.74-.5-11.7,1.53-23,5-34.12,8.41-7.3,2.24-14.72,4.54-20.9,8.37-7,4.36-12,10.38-16.74,16.28-7.77,9.59-15.59,19.24-21.15,29.63-15.24,28.44-11.84,61.69,8.83,86.33a42.93,42.93,0,0,1-3.17-27.09l9.43,9.42a77.79,77.79,0,0,1,3.52-17.12,18.21,18.21,0,0,1,6.8,6.5l3.3-15.95a23,23,0,0,1,8.33,9.06c-2.82-14.36,2.57-29.92,14.49-41.85"/><path class="cls-23" d="M567.49,244.87c-16.75-9.4-38.27-2.81-48.11,14.72"/><path class="cls-23" d="M610.94,244.87c16.75-9.4,38.26-2.81,48.1,14.72"/><circle cx="590.86" cy="490.1" r="2.41"/><circle cx="590.86" cy="515.8" r="2.41"/><circle cx="590.86" cy="541.5" r="2.41"/><circle cx="590.86" cy="563.98" r="2.41"/></g></svg>
