<?xml version="1.0" standalone="no"?>
<!DOCTYPE svg PUBLIC "-//W3C//DTD SVG 20010904//EN"
 "http://www.w3.org/TR/2001/REC-SVG-20010904/DTD/svg10.dtd">
<svg version="1.0" xmlns="http://www.w3.org/2000/svg"
 width="512.000000pt" height="512.000000pt" viewBox="0 0 512.000000 512.000000"
 preserveAspectRatio="xMidYMid meet">
<metadata>
Created by potrace 1.11, written by Peter Selinger 2001-2013
</metadata>
<g transform="translate(0.000000,512.000000) scale(0.100000,-0.100000)"
fill="#000000" stroke="none">
<path d="M885 4827 c2 -95 7 -242 10 -327 3 -85 8 -240 11 -345 2 -104 7 -248
9 -320 2 -71 7 -222 10 -335 3 -113 7 -261 10 -330 3 -69 7 -226 11 -350 6
-226 11 -400 13 -433 1 -16 9 -17 89 -13 48 3 148 8 222 12 74 3 159 7 188 9
54 3 61 -3 61 -55 0 -8 2 -94 5 -190 3 -96 8 -247 11 -335 2 -88 7 -241 10
-340 4 -99 8 -247 10 -330 3 -82 7 -224 9 -315 7 -230 17 -546 21 -665 2 -55
4 -115 4 -133 l1 -32 98 5 c53 3 144 7 202 10 213 10 487 24 585 30 39 2 138
7 220 11 132 5 181 8 208 13 4 0 7 14 7 29 0 26 3 29 33 26 17 -1 68 -5 112
-8 83 -6 150 -12 270 -22 39 -3 97 -7 130 -9 69 -4 196 -14 272 -20 28 -3 93
-7 145 -11 51 -3 109 -7 128 -9 19 -1 76 -5 125 -9 50 -3 113 -8 140 -11 53
-5 173 -14 267 -20 l58 -3 -5 66 c-2 37 -7 92 -9 122 -3 30 -8 89 -11 130 -3
41 -7 98 -10 125 -2 28 -7 84 -10 125 -9 131 -18 243 -40 515 -3 33 -8 94 -10
135 -3 41 -7 95 -9 120 -2 25 -7 88 -11 140 -4 52 -9 111 -11 130 -1 19 -6 71
-9 115 -19 269 -23 297 -38 307 -7 4 -84 30 -172 58 -88 28 -167 54 -175 57
-8 3 -19 7 -25 9 -5 1 -59 19 -120 39 -60 20 -117 39 -125 40 -8 2 -111 36
-229 74 -199 66 -254 81 -238 65 3 -4 2 -15 -3 -25 -6 -9 -12 -33 -15 -51 -5
-38 -39 -196 -60 -278 -8 -30 -16 -66 -19 -80 -2 -14 -9 -46 -15 -73 -6 -26
-14 -64 -17 -85 -3 -20 -7 -39 -9 -42 -3 -5 -91 -396 -109 -481 -3 -13 -7 -33
-10 -44 -2 -11 -16 -73 -30 -137 -33 -150 -31 -143 -62 -278 -33 -148 -33
-150 -40 -185 -2 -16 -13 -61 -23 -100 l-19 -70 -2 130 c-1 72 -3 231 -5 355
-12 783 -17 1062 -20 1278 l-3 243 86 -6 c48 -3 110 -8 137 -10 50 -4 143 -11
265 -20 36 -3 97 -7 135 -10 39 -3 99 -8 135 -10 36 -3 99 -7 140 -10 41 -3
101 -8 133 -10 l58 -4 -5 57 c-3 31 -8 91 -11 132 -3 41 -7 100 -10 130 -5 61
-15 190 -20 260 -6 88 -16 206 -20 255 -2 28 -7 86 -10 130 -4 44 -8 98 -10
120 -2 22 -7 78 -10 125 -3 46 -8 107 -10 135 -3 27 -7 86 -10 130 -12 165
-14 191 -19 250 -4 33 -9 98 -12 145 -3 47 -7 100 -8 118 -2 18 -6 35 -10 39
-7 7 -74 30 -381 128 -115 37 -219 71 -230 75 -28 12 -213 71 -228 74 -7 1
-16 4 -22 7 -13 8 -210 69 -222 69 -5 0 -10 -6 -11 -12 0 -7 -10 -53 -22 -103
-11 -49 -23 -106 -26 -125 -3 -19 -8 -38 -10 -41 -2 -4 -24 -101 -50 -215 -25
-115 -48 -218 -51 -229 -2 -11 -7 -33 -9 -50 -3 -16 -16 -75 -30 -130 -13 -55
-25 -111 -28 -125 -2 -14 -18 -88 -36 -165 -17 -77 -33 -147 -35 -155 -36
-168 -117 -533 -124 -555 -6 -21 -10 12 -11 115 -3 238 -8 532 -15 940 -3 212
-8 518 -11 680 -3 162 -4 316 -4 343 1 32 -3 47 -12 48 -28 3 -415 11 -1135
24 l-213 4 5 -172z"/>
</g>
</svg>
